<svg xmlns="http://www.w3.org/2000/svg" xmlns:xlink="http://www.w3.org/1999/xlink" width="500" zoomAndPan="magnify" viewBox="0 0 375 374.999991" height="500" preserveAspectRatio="xMidYMid meet" version="1.0"><defs><g/><clipPath id="id1"><path d="M 44.691406 156.585938 L 58.941406 156.585938 L 58.941406 166.335938 L 44.691406 166.335938 Z M 44.691406 156.585938 " clip-rule="nonzero"/></clipPath></defs><rect x="-37.5" width="450" fill="#ffffff" y="-37.499999" height="449.999989" fill-opacity="1"/><rect x="-37.5" width="450" fill="#ffffff" y="-37.499999" height="449.999989" fill-opacity="1"/><rect x="-37.5" width="450" fill="#ffffff" y="-37.499999" height="449.999989" fill-opacity="1"/><rect x="-37.5" width="450" fill="#ffffff" y="-37.499999" height="449.999989" fill-opacity="1"/><g fill="#3b82f6" fill-opacity="1"><g transform="translate(41.652307, 208.142482)"><g><path d="M 3.867188 -42.910156 L 16.070312 -42.910156 L 16.070312 -50.414062 L 3.867188 -50.414062 Z M 4.398438 0 L 15.617188 0 L 15.617188 -37.90625 L 4.398438 -37.90625 Z M 4.398438 0 "/></g></g></g><g fill="#3b82f6" fill-opacity="1"><g transform="translate(61.586812, 208.142482)"><g><path d="M 2.957031 -16.601562 C 3.335938 -7.429688 9.019531 1.289062 25.625 1.289062 C 41.390625 1.289062 47.53125 -5.15625 47.53125 -15.085938 C 47.53125 -23.878906 42.378906 -28.730469 32.144531 -29.867188 L 21.605469 -31.15625 C 17.4375 -31.613281 15.691406 -33.8125 15.691406 -36.769531 C 15.691406 -40.710938 18.953125 -43.210938 25.09375 -43.210938 C 31.765625 -43.210938 35.101562 -40.179688 35.707031 -35.480469 L 47 -35.480469 C 46.394531 -44.425781 40.179688 -51.703125 25.09375 -51.703125 C 10.917969 -51.703125 4.09375 -45.183594 4.09375 -36.085938 C 4.09375 -27.746094 9.097656 -22.820312 18.042969 -21.757812 L 29.1875 -20.316406 C 33.660156 -19.710938 35.933594 -17.738281 35.933594 -13.949219 C 35.933594 -9.929688 33.433594 -7.277344 25.773438 -7.277344 C 17.816406 -7.277344 14.480469 -11.21875 14.175781 -16.601562 Z M 2.957031 -16.601562 "/></g></g></g><g fill="#3b82f6" fill-opacity="1"><g transform="translate(112.218928, 208.142482)"><g><path d="M 29.261719 -39.117188 C 22.363281 -39.117188 18.042969 -35.628906 15.617188 -30.476562 L 15.617188 -53.066406 L 4.398438 -53.066406 L 4.398438 0 L 15.617188 0 L 15.617188 -17.207031 C 15.617188 -26.230469 18.953125 -30.019531 24.941406 -30.019531 C 29.566406 -30.019531 32.144531 -27.59375 32.144531 -21.53125 L 32.144531 0 L 43.363281 0 L 43.363281 -23.273438 C 43.363281 -33.203125 39.195312 -39.117188 29.261719 -39.117188 Z M 29.261719 -39.117188 "/></g></g></g><g fill="#3b82f6" fill-opacity="1"><g transform="translate(159.44019, 208.142482)"><g><path d="M 23.425781 -6.519531 C 18.042969 -6.519531 14.480469 -8.871094 13.796875 -16.070312 L 42.679688 -16.070312 C 42.832031 -16.90625 42.832031 -17.96875 42.832031 -19.105469 C 42.832031 -29.792969 37.527344 -39.117188 23.199219 -39.117188 C 9.171875 -39.117188 2.804688 -30.019531 2.804688 -19.027344 C 2.804688 -8.339844 8.414062 1.214844 23.199219 1.214844 C 36.84375 1.214844 41.695312 -5.382812 42.757812 -11.445312 L 31.992188 -11.445312 C 30.929688 -8.640625 28.351562 -6.519531 23.425781 -6.519531 Z M 23.347656 -31.535156 C 28.960938 -31.535156 31.765625 -28.65625 32.144531 -22.894531 L 13.875 -22.894531 C 14.78125 -29.339844 17.96875 -31.535156 23.347656 -31.535156 Z M 23.347656 -31.535156 "/></g></g></g><g fill="#3b82f6" fill-opacity="1"><g transform="translate(204.918139, 208.142482)"><g><path d="M 4.398438 0 L 15.617188 0 L 15.617188 -53.066406 L 4.398438 -53.066406 Z M 4.398438 0 "/></g></g></g><g fill="#3b82f6" fill-opacity="1"><g transform="translate(224.852644, 208.142482)"><g><path d="M 21.679688 0 L 28.808594 0 L 28.808594 -8.945312 L 18.953125 -8.945312 L 18.953125 -29.414062 L 29.867188 -29.414062 L 29.867188 -37.90625 L 18.953125 -37.90625 L 18.953125 -46.925781 L 13.265625 -46.925781 L 8.640625 -37.980469 L 0.832031 -34.796875 L 0.832031 -29.414062 L 7.734375 -29.414062 L 7.734375 -13.644531 C 7.734375 -4.625 10.917969 0 21.679688 0 Z M 21.679688 0 "/></g></g></g><g fill="#3b82f6" fill-opacity="1"><g transform="translate(256.687194, 208.142482)"><g><path d="M 23.425781 -6.519531 C 18.042969 -6.519531 14.480469 -8.871094 13.796875 -16.070312 L 42.679688 -16.070312 C 42.832031 -16.90625 42.832031 -17.96875 42.832031 -19.105469 C 42.832031 -29.792969 37.527344 -39.117188 23.199219 -39.117188 C 9.171875 -39.117188 2.804688 -30.019531 2.804688 -19.027344 C 2.804688 -8.339844 8.414062 1.214844 23.199219 1.214844 C 36.84375 1.214844 41.695312 -5.382812 42.757812 -11.445312 L 31.992188 -11.445312 C 30.929688 -8.640625 28.351562 -6.519531 23.425781 -6.519531 Z M 23.347656 -31.535156 C 28.960938 -31.535156 31.765625 -28.65625 32.144531 -22.894531 L 13.875 -22.894531 C 14.78125 -29.339844 17.96875 -31.535156 23.347656 -31.535156 Z M 23.347656 -31.535156 "/></g></g></g><g fill="#3b82f6" fill-opacity="1"><g transform="translate(302.165142, 208.142482)"><g><path d="M 26.914062 -38.511719 C 20.542969 -38.511719 17.132812 -35.175781 15.3125 -29.792969 L 15.3125 -37.90625 L 4.398438 -37.90625 L 4.398438 0 L 15.617188 0 L 15.617188 -14.933594 C 15.617188 -23.5 18.195312 -27.59375 25.699219 -27.59375 L 29.414062 -27.59375 L 29.414062 -38.511719 Z M 26.914062 -38.511719 "/></g></g></g><g clip-path="url(#id1)"><path fill="#fde047" d="M 44.695312 156.585938 L 58.9375 156.585938 L 58.9375 166.335938 L 44.695312 166.335938 L 44.695312 156.585938 " fill-opacity="1" fill-rule="nonzero"/></g></svg>